# xmcd CD database file
#
# Track frame offsets:
#	150
#	13711
#	25126
#	37603
#	49506
#	61511
#	73759
#	85697
#	98353
#	110857
#	122584
#	135586
#	148291
#	160243
#	173844
#	185388
#	196862
#	208713
#	220606
#	231176
#
# Disc length: 3226 seconds
#
# Revision: 0
# Processed by: cddbd v1.5.2PL0 Copyright (c) Steve Scherf et al.
# Submitted via: CDex 1.51
#
DISCID=060c9814
DTITLE=Lightnin' Hopkins - Nothin' but the blues
DYEAR=2003
DGENRE=Blues
TTITLE0=Katie Mae Blues
TTITLE1=Let Me Play With Your Poodle
TTITLE2=Short Haired Woman
TTITLE3=Someday Baby
TTITLE4=Shotgun
TTITLE5=Lonesome home
TTITLE6=Tim Moore's Farm
TTITLE7=Lightnin's Boogie
TTITLE8=Automobile
TTITLE9=Bad luck and trouble
TTITLE10=Jake head boogie
TTITLE11=One Kind Favour
TTITLE12=Mistreater Blues
TTITLE13=Long Way From Texas
TTITLE14=Buck Dance Boogie
TTITLE15=My Heart To Weep
TTITLE16=Gone With The Wind
TTITLE17=Don't Think 'Cause You're pretty
TTITLE18=Nothin' but the blues
TTITLE19=Lightnin' Special
EXTD=YEAR: 2003
EXTT0=
EXTT1=
EXTT2=
EXTT3=
EXTT4=
EXTT5=
EXTT6=
EXTT7=
EXTT8=
EXTT9=
EXTT10=
EXTT11=
EXTT12=
EXTT13=
EXTT14=
EXTT15=
EXTT16=
EXTT17=
EXTT18=
EXTT19=
PLAYORDER=
